<?xml version="1.0" encoding="UTF-8" standalone="no"?>
<svg
   width="1076"
   height="812"
   version="1.1"
   id="svg347"
   sodipodi:docname="help-workflow.svg"
   inkscape:version="1.3.2 (091e20ef0f, 2023-11-25, custom)"
   xmlns:inkscape="http://www.inkscape.org/namespaces/inkscape"
   xmlns:sodipodi="http://sodipodi.sourceforge.net/DTD/sodipodi-0.dtd"
   xmlns:xlink="http://www.w3.org/1999/xlink"
   xmlns="http://www.w3.org/2000/svg"
   xmlns:svg="http://www.w3.org/2000/svg"
   xmlns:lucid="lucid">
  <defs
     id="defs348" />
  <sodipodi:namedview
     id="namedview347"
     pagecolor="#505050"
     bordercolor="#eeeeee"
     borderopacity="1"
     inkscape:showpageshadow="0"
     inkscape:pageopacity="0"
     inkscape:pagecheckerboard="0"
     inkscape:deskcolor="#d1d1d1"
     inkscape:zoom="0.72906404"
     inkscape:cx="545.90541"
     inkscape:cy="630.94595"
     inkscape:window-width="1720"
     inkscape:window-height="1372"
     inkscape:window-x="1720"
     inkscape:window-y="32"
     inkscape:window-maximized="0"
     inkscape:current-layer="svg347" />
  <rect
     style="fill:#ffffff;stroke:#000000;stroke-width:1.13386;paint-order:markers fill stroke;fill-opacity:1"
     id="rect348"
     width="1076"
     height="812"
     x="0"
     y="0" />
  <g
     transform="translate(-404 -84)"
     lucid:page-tab-id="0_0"
     id="g347">
    <path
       d="M460 146c0-3.3 2.7-6 6-6h208c3.3 0 6 2.7 6 6v108c0 3.3-2.7 6-6 6H466c-3.3 0-6-2.7-6-6z"
       stroke="#5e5e5e"
       stroke-width="3"
       fill="#ffeca9"
       id="path1" />
    <path
       d="M698 140c0 9.94-8.06 18-18 18s-18-8.06-18-18 8.06-18 18-18 18 8.06 18 18z"
       fill="#989898"
       id="path2" />
    <path
       d="M680.66 130c3.96.1 6.34 1.87 6.34 6.36 0 3.52-2.47 5.6-5.75 6.2V144h-4v-3.27c0-1.1.9-2 2-2 2.3 0 3.75-.9 3.75-2.37 0-2-.43-2.3-2.44-2.35h-1.31c-1.08 0-2.03.62-2.4 1.5l-3.7-1.58c1.03-2.36 3.43-3.92 6.1-3.92h1.42zm-2.53 16c-.63 0-1.13.5-1.13 1.13v1.75c0 .62.5 1.12 1.13 1.12h1.75c.62 0 1.12-.5 1.12-1.13v-1.75c0-.62-.5-1.12-1.13-1.12h-1.75z"
       fill="#fff"
       id="path3" />
    <use
       xlink:href="#a"
       transform="matrix(1,0,0,1,472,152) translate(42.84567901234568 26.77777777777778)"
       id="use3" />
    <use
       xlink:href="#b"
       transform="matrix(1,0,0,1,472,152) translate(86.48765432098764 26.77777777777778)"
       id="use4" />
    <use
       xlink:href="#c"
       transform="matrix(1,0,0,1,472,152) translate(140.80864197530863 26.77777777777778)"
       id="use5" />
    <use
       xlink:href="#d"
       transform="matrix(1,0,0,1,472,152) translate(0.006172839506177752 53.44444444444445)"
       id="use6" />
    <use
       xlink:href="#e"
       transform="matrix(1,0,0,1,472,152) translate(86.24074074074073 53.44444444444445)"
       id="use7" />
    <use
       xlink:href="#f"
       transform="matrix(1,0,0,1,472,152) translate(112.10493827160494 53.44444444444445)"
       id="use8" />
    <use
       xlink:href="#g"
       transform="matrix(1,0,0,1,472,152) translate(24.04938271604938 80.11111111111111)"
       id="use9" />
    <use
       xlink:href="#h"
       transform="matrix(1,0,0,1,472,152) translate(69.60493827160494 80.11111111111111)"
       id="use10" />
    <use
       xlink:href="#i"
       transform="matrix(1,0,0,1,472,152) translate(106.64197530864197 80.11111111111111)"
       id="use11" />
    <path
       d="M740 466c0-3.3 2.7-6 6-6h208c3.3 0 6 2.7 6 6v108c0 3.3-2.7 6-6 6H746c-3.3 0-6-2.7-6-6z"
       stroke="#5e5e5e"
       stroke-width="3"
       fill="#c1e4f7"
       id="path11" />
    <path
       d="M978 460c0 9.94-8.06 18-18 18s-18-8.06-18-18 8.06-18 18-18 18 8.06 18 18z"
       fill="#32a5df"
       id="path12" />
    <path
       d="M962 466v-9h-6v4h2v5h-2v3h8v-3h-2zm-2.88-15h1.75c.63 0 1.13.5 1.13 1.13v1.75c0 .62-.5 1.12-1.13 1.12h-1.75c-.62 0-1.12-.5-1.12-1.13v-1.75c0-.62.5-1.12 1.13-1.12z"
       fill="#fff"
       id="path13" />
    <use
       xlink:href="#j"
       transform="matrix(1,0,0,1,752,472) translate(33.67901234567901 26.77777777777778)"
       id="use13" />
    <use
       xlink:href="#k"
       transform="matrix(1,0,0,1,752,472) translate(71.02469135802468 26.77777777777778)"
       id="use14" />
    <use
       xlink:href="#l"
       transform="matrix(1,0,0,1,752,472) translate(95.71604938271605 26.77777777777778)"
       id="use15" />
    <use
       xlink:href="#m"
       transform="matrix(1,0,0,1,752,472) translate(36.95061728395062 53.44444444444445)"
       id="use16" />
    <use
       xlink:href="#n"
       transform="matrix(1,0,0,1,752,472) translate(114.66666666666666 53.44444444444445)"
       id="use17" />
    <use
       xlink:href="#c"
       transform="matrix(1,0,0,1,752,472) translate(146.7037037037037 53.44444444444445)"
       id="use18" />
    <use
       xlink:href="#o"
       transform="matrix(1,0,0,1,752,472) translate(59.79012345679012 80.11111111111111)"
       id="use19" />
    <path
       d="M460 306c0-3.3 2.7-6 6-6h208c3.3 0 6 2.7 6 6v108c0 3.3-2.7 6-6 6H466c-3.3 0-6-2.7-6-6z"
       stroke="#5e5e5e"
       stroke-width="3"
       fill="#c1e4f7"
       id="path19" />
    <path
       d="M698 300c0 9.94-8.06 18-18 18s-18-8.06-18-18 8.06-18 18-18 18 8.06 18 18z"
       fill="#32a5df"
       id="path20" />
    <path
       d="M682 306v-9h-6v4h2v5h-2v3h8v-3h-2zm-2.88-15h1.75c.63 0 1.13.5 1.13 1.13v1.75c0 .62-.5 1.12-1.13 1.12h-1.75c-.62 0-1.12-.5-1.12-1.13v-1.75c0-.62.5-1.12 1.13-1.12z"
       fill="#fff"
       id="path21" />
    <use
       xlink:href="#p"
       transform="matrix(1,0,0,1,472,312) translate(9.697530864197532 25.77777777777778)"
       id="use21" />
    <use
       xlink:href="#q"
       transform="matrix(1,0,0,1,472,312) translate(47.04320987654321 25.77777777777778)"
       id="use22" />
    <use
       xlink:href="#r"
       transform="matrix(1,0,0,1,472,312) translate(71.73456790123457 25.77777777777778)"
       id="use23" />
    <use
       xlink:href="#s"
       transform="matrix(1,0,0,1,472,312) translate(129.69753086419752 25.77777777777778)"
       id="use24" />
    <use
       xlink:href="#t"
       transform="matrix(1,0,0,1,472,312) translate(146.91975308641975 25.77777777777778)"
       id="use25" />
    <use
       xlink:href="#u"
       transform="matrix(1,0,0,1,472,312) translate(30.77777777777777 52.44444444444445)"
       id="use26" />
    <use
       xlink:href="#v"
       transform="matrix(1,0,0,1,472,312) translate(67.81481481481481 52.44444444444445)"
       id="use27" />
    <use
       xlink:href="#w"
       transform="matrix(1,0,0,1,472,312) translate(146.7037037037037 52.44444444444445)"
       id="use28" />
    <use
       xlink:href="#x"
       transform="matrix(1,0,0,1,472,312) translate(-7.4629629629629335 79.11111111111111)"
       id="use29" />
    <path
       d="M570 262.5V280"
       stroke="#5e5e5e"
       stroke-width="2"
       fill="none"
       id="path29" />
    <path
       d="M571 262.53h-2v-1.03h2z"
       fill="#5e5e5e"
       id="path30" />
    <path
       d="M570 295.26L565.36 281h9.28z"
       stroke="#5e5e5e"
       stroke-width="2"
       fill="#5e5e5e"
       id="path31" />
    <path
       d="M555.2 463.6c2.65-2 6.95-2 9.6 0l70.4 52.8c2.65 2 2.65 5.2 0 7.2l-70.4 52.8c-2.65 2-6.95 2-9.6 0l-70.4-52.8c-2.65-2-2.65-5.2 0-7.2z"
       stroke="#5e5e5e"
       stroke-width="3"
       fill="#e5e5e5"
       id="path32" />
    <use
       xlink:href="#y"
       transform="matrix(1,0,0,1,485,465) translate(36.764259259259255 59.02777777777778)"
       id="use32" />
    <path
       d="M1095.2 463.6c2.65-2 6.95-2 9.6 0l70.4 52.8c2.65 2 2.65 5.2 0 7.2l-70.4 52.8c-2.65 2-6.95 2-9.6 0l-70.4-52.8c-2.65-2-2.65-5.2 0-7.2z"
       stroke="#5e5e5e"
       stroke-width="3"
       fill="#e5e5e5"
       id="path33" />
    <use
       xlink:href="#y"
       transform="matrix(1,0,0,1,1025,465) translate(36.764259259259255 59.02777777777778)"
       id="use33" />
    <path
       d="M570 422.5v24.62"
       stroke="#5e5e5e"
       stroke-width="2"
       fill="none"
       id="path34" />
    <path
       d="M571 422.53h-2v-1.03h2z"
       fill="#5e5e5e"
       id="path35" />
    <path
       d="M570 462.4l-4.64-14.28h9.28z"
       stroke="#5e5e5e"
       stroke-width="2"
       fill="#5e5e5e"
       id="path36" />
    <path
       d="M561 773.87l.7 2.64 1.8 1.8 2.63.7H620v2h-54.13l-3.42-.92-2.53-2.53-.92-3.42v-44.55h2zm0-65.62h-2V580.33h2z"
       fill="#5e5e5e"
       id="path37" />
    <path
       d="M561 579.35v1h-2v-1.04zM635.26 780L621 784.64v-9.28z"
       fill="#5e5e5e"
       id="path38" />
    <path
       d="M638.5 780l-18.5 6v-12zm-16.5 3.26l10.03-3.26-10.03-3.26z"
       fill="#5e5e5e"
       id="path39" />
    <use
       xlink:href="#z"
       transform="matrix(1,0,0,1,544.6913580246913,708.2480493152058) translate(0 14.222222222222223)"
       id="use39" />
    <path
       d="M676.75 521H639.6v-2h37.15zm43.25 0h-19.64v-2H720z"
       fill="#5e5e5e"
       id="path40" />
    <path
       d="M639.64 521h-1.1l.18-.4-.28-1.6h1.2zM735.26 520L721 524.64v-9.28z"
       fill="#5e5e5e"
       id="path41" />
    <path
       d="M738.5 520l-18.5 6v-12zm-16.5 3.26l10.03-3.26-10.03-3.26z"
       fill="#5e5e5e"
       id="path42" />
    <use
       xlink:href="#A"
       transform="matrix(1,0,0,1,676.7530933839913,509.3333333333333) translate(0 14.222222222222223)"
       id="use42" />
    <path
       d="M962.5 520h40.4"
       stroke="#5e5e5e"
       stroke-width="2"
       fill="none"
       id="path43" />
    <path
       d="M962.53 521h-1.03v-2h1.03z"
       fill="#5e5e5e"
       id="path44" />
    <path
       d="M1018.15 520l-14.26 4.64v-9.28z"
       stroke="#5e5e5e"
       stroke-width="2"
       fill="#5e5e5e"
       id="path45" />
    <path
       d="M1101 774.13l-.92 3.42-2.53 2.53-3.42.92H1040v-2h53.87l2.64-.7 1.8-1.8.7-2.63v-44.3h2zm0-65.88h-2V580.33h2z"
       fill="#5e5e5e"
       id="path46" />
    <path
       d="M1101 579.35v1h-2v-1.04zM1039 784.64l-14.26-4.64 14.26-4.64z"
       fill="#5e5e5e"
       id="path47" />
    <path
       d="M1040 786l-18.5-6 18.5-6zm-12.03-6l10.03 3.26v-6.52z"
       fill="#5e5e5e"
       id="path48" />
    <g
       id="g48">
      <use
         xlink:href="#z"
         transform="matrix(1,0,0,1,1084.6913580246915,708.2480493152058) translate(0 14.222222222222223)"
         id="use48" />
    </g>
    <path
       d="M1311 700h-2V564.22h2zm-3.45-180.08l2.53 2.53.92 3.42v17.02h-2v-16.77l-.7-2.64-1.8-1.8-2.63-.7H1179.6v-2h124.53z"
       fill="#5e5e5e"
       id="path49" />
    <path
       d="M1179.64 521h-1.1l.18-.4-.28-1.6h1.2zM1310 715.26l-4.64-14.26h9.28z"
       fill="#5e5e5e"
       id="path50" />
    <path
       d="M1310 718.5l-6-18.5h12zm-3.26-16.5l3.26 10.03 3.26-10.03z"
       fill="#5e5e5e"
       id="path51" />
    <g
       id="g51">
      <use
         xlink:href="#A"
         transform="matrix(1,0,0,1,1298.1975308641975,542.8888958531271) translate(0 14.222222222222223)"
         id="use51" />
    </g>
    <path
       d="M720 306c0-3.3 2.7-6 6-6h148c3.3 0 6 2.7 6 6v68c0 3.3-2.7 6-6 6H726c-3.3 0-6-2.7-6-6z"
       fill="#fff"
       fill-opacity="0"
       id="path52" />
    <path
       d="M736 300h-10c-3.3 0-6 2.7-6 6v68c0 3.3 2.7 6 6 6h10"
       stroke="#5e5e5e"
       stroke-width="3"
       fill="none"
       id="path53" />
    <g
       id="g62">
      <use
         xlink:href="#B"
         transform="matrix(1,0,0,1,735,305) translate(0 17.22222222222222)"
         id="use53" />
      <use
         xlink:href="#C"
         transform="matrix(1,0,0,1,735,305) translate(39.50617283950617 17.22222222222222)"
         id="use54" />
      <use
         xlink:href="#D"
         transform="matrix(1,0,0,1,735,305) translate(69.1358024691358 17.22222222222222)"
         id="use55" />
      <use
         xlink:href="#E"
         transform="matrix(1,0,0,1,735,305) translate(0 38.55555555555556)"
         id="use56" />
      <use
         xlink:href="#F"
         transform="matrix(1,0,0,1,735,305) translate(30.56790123456789 38.55555555555556)"
         id="use57" />
      <use
         xlink:href="#G"
         transform="matrix(1,0,0,1,735,305) translate(55.259259259259245 38.55555555555556)"
         id="use58" />
      <use
         xlink:href="#H"
         transform="matrix(1,0,0,1,735,305) translate(84.88888888888887 38.55555555555556)"
         id="use59" />
      <use
         xlink:href="#I"
         transform="matrix(1,0,0,1,735,305) translate(104.64197530864195 38.55555555555556)"
         id="use60" />
      <use
         xlink:href="#J"
         transform="matrix(1,0,0,1,735,305) translate(0 59.888888888888886)"
         id="use61" />
      <use
         xlink:href="#K"
         transform="matrix(1,0,0,1,735,305) translate(63.1111111111111 59.888888888888886)"
         id="use62" />
    </g>
    <path
       d="M640 726c0-3.3 2.7-6 6-6h368c3.3 0 6 2.7 6 6v108c0 3.3-2.7 6-6 6H646c-3.3 0-6-2.7-6-6z"
       stroke="#5e5e5e"
       stroke-width="3"
       fill="#c7e8ac"
       id="path62" />
    <path
       d="M1038 720c0 9.94-8.06 18-18 18s-18-8.06-18-18 8.06-18 18-18 18 8.06 18 18z"
       fill="#78b740"
       id="path63" />
    <path
       d="M1013.37 717.52l-2.74 2.9 6.72 6.32 12.02-11.28-2.74-2.92-9.28 8.72-3.98-3.74z"
       fill="#fff"
       id="path64" />
    <g
       id="g75">
      <use
         xlink:href="#L"
         transform="matrix(1,0,0,1,652,732) translate(0.9938271604938222 26.77777777777778)"
         id="use64" />
      <use
         xlink:href="#M"
         transform="matrix(1,0,0,1,652,732) translate(68.83333333333333 26.77777777777778)"
         id="use65" />
      <use
         xlink:href="#N"
         transform="matrix(1,0,0,1,652,732) translate(142.84567901234567 26.77777777777778)"
         id="use66" />
      <use
         xlink:href="#O"
         transform="matrix(1,0,0,1,652,732) translate(232.84567901234567 26.77777777777778)"
         id="use67" />
      <use
         xlink:href="#P"
         transform="matrix(1,0,0,1,652,732) translate(324.141975308642 26.77777777777778)"
         id="use68" />
      <use
         xlink:href="#v"
         transform="matrix(1,0,0,1,652,732) translate(11.549382716049365 53.44444444444445)"
         id="use69" />
      <use
         xlink:href="#Q"
         transform="matrix(1,0,0,1,652,732) translate(90.43827160493825 53.44444444444445)"
         id="use70" />
      <use
         xlink:href="#R"
         transform="matrix(1,0,0,1,652,732) translate(116.30246913580245 53.44444444444445)"
         id="use71" />
      <use
         xlink:href="#S"
         transform="matrix(1,0,0,1,652,732) translate(150.7469135802469 53.44444444444445)"
         id="use72" />
      <use
         xlink:href="#T"
         transform="matrix(1,0,0,1,652,732) translate(288.8950617283951 53.44444444444445)"
         id="use73" />
      <use
         xlink:href="#U"
         transform="matrix(1,0,0,1,652,732) translate(112.04320987654322 80.11111111111111)"
         id="use74" />
      <use
         xlink:href="#V"
         transform="matrix(1,0,0,1,652,732) translate(161.3641975308642 80.11111111111111)"
         id="use75" />
    </g>
    <path
       d="M1160 726c0-3.3 2.7-6 6-6h288c3.3 0 6 2.7 6 6v108c0 3.3-2.7 6-6 6h-288c-3.3 0-6-2.7-6-6z"
       stroke="#5e5e5e"
       stroke-width="3"
       fill="#c1e4f7"
       id="path75" />
    <g
       id="g82">
      <use
         xlink:href="#W"
         transform="matrix(1,0,0,1,1172,732) translate(66.39506172839506 26.77777777777778)"
         id="use76" />
      <use
         xlink:href="#X"
         transform="matrix(1,0,0,1,1172,732) translate(147.87654320987656 26.77777777777778)"
         id="use77" />
      <use
         xlink:href="#Y"
         transform="matrix(1,0,0,1,1172,732) translate(72.01234567901234 53.44444444444445)"
         id="use78" />
      <use
         xlink:href="#Z"
         transform="matrix(1,0,0,1,1172,732) translate(57.197530864197546 80.11111111111111)"
         id="use79" />
      <use
         xlink:href="#aa"
         transform="matrix(1,0,0,1,1172,732) translate(79.35802469135804 80.11111111111111)"
         id="use80" />
      <use
         xlink:href="#q"
         transform="matrix(1,0,0,1,1172,732) translate(146.0246913580247 80.11111111111111)"
         id="use81" />
      <use
         xlink:href="#ab"
         transform="matrix(1,0,0,1,1172,732) translate(170.71604938271605 80.11111111111111)"
         id="use82" />
    </g>
    <defs
       id="defs347">
      <path
         fill="#333"
         d="M137-103V0h-34v-103L8-248h37l75 118 75-118h37"
         id="ac" />
      <path
         fill="#333"
         d="M100-194c62-1 85 37 85 99 1 63-27 99-86 99S16-35 15-95c0-66 28-99 85-99zM99-20c44 1 53-31 53-75 0-43-8-75-51-75s-53 32-53 75 10 74 51 75"
         id="ad" />
      <path
         fill="#333"
         d="M84 4C-5 8 30-112 23-190h32v120c0 31 7 50 39 49 72-2 45-101 50-169h31l1 190h-30c-1-10 1-25-2-33-11 22-28 36-60 37"
         id="ae" />
      <g
         id="a">
        <use
           transform="matrix(0.06172839506172839,0,0,0.06172839506172839,0,0)"
           xlink:href="#ac"
           id="use83" />
        <use
           transform="matrix(0.06172839506172839,0,0,0.06172839506172839,12.777777777777777,0)"
           xlink:href="#ad"
           id="use84" />
        <use
           transform="matrix(0.06172839506172839,0,0,0.06172839506172839,25.123456790123456,0)"
           xlink:href="#ae"
           id="use85" />
      </g>
      <path
         fill="#333"
         d="M106-169C34-169 62-67 57 0H25v-261h32l-1 103c12-21 28-36 61-36 89 0 53 116 60 194h-32v-121c2-32-8-49-39-48"
         id="af" />
      <path
         fill="#333"
         d="M141-36C126-15 110 5 73 4 37 3 15-17 15-53c-1-64 63-63 125-63 3-35-9-54-41-54-24 1-41 7-42 31l-33-3c5-37 33-52 76-52 45 0 72 20 72 64v82c-1 20 7 32 28 27v20c-31 9-61-2-59-35zM48-53c0 20 12 33 32 33 41-3 63-29 60-74-43 2-92-5-92 41"
         id="ag" />
      <path
         fill="#333"
         d="M108 0H70L1-190h34L89-25l56-165h34"
         id="ah" />
      <path
         fill="#333"
         d="M100-194c63 0 86 42 84 106H49c0 40 14 67 53 68 26 1 43-12 49-29l28 8c-11 28-37 45-77 45C44 4 14-33 15-96c1-61 26-98 85-98zm52 81c6-60-76-77-97-28-3 7-6 17-6 28h103"
         id="ai" />
      <g
         id="b">
        <use
           transform="matrix(0.06172839506172839,0,0,0.06172839506172839,0,0)"
           xlink:href="#af"
           id="use86" />
        <use
           transform="matrix(0.06172839506172839,0,0,0.06172839506172839,12.345679012345679,0)"
           xlink:href="#ag"
           id="use87" />
        <use
           transform="matrix(0.06172839506172839,0,0,0.06172839506172839,24.691358024691358,0)"
           xlink:href="#ah"
           id="use88" />
        <use
           transform="matrix(0.06172839506172839,0,0,0.06172839506172839,35.80246913580247,0)"
           xlink:href="#ai"
           id="use89" />
      </g>
      <use
         transform="matrix(0.06172839506172839,0,0,0.06172839506172839,0,0)"
         xlink:href="#ag"
         id="c" />
      <path
         fill="#333"
         d="M115-194c55 1 70 41 70 98S169 2 115 4C84 4 66-9 55-30l1 105H24l-1-265h31l2 30c10-21 28-34 59-34zm-8 174c40 0 45-34 45-75s-6-73-45-74c-42 0-51 32-51 76 0 43 10 73 51 73"
         id="aj" />
      <path
         fill="#333"
         d="M114-163C36-179 61-72 57 0H25l-1-190h30c1 12-1 29 2 39 6-27 23-49 58-41v29"
         id="ak" />
      <path
         fill="#333"
         d="M115-194c53 0 69 39 70 98 0 66-23 100-70 100C84 3 66-7 56-30L54 0H23l1-261h32v101c10-23 28-34 59-34zm-8 174c40 0 45-34 45-75 0-40-5-75-45-74-42 0-51 32-51 76 0 43 10 73 51 73"
         id="al" />
      <path
         fill="#333"
         d="M24 0v-261h32V0H24"
         id="am" />
      <path
         fill="#333"
         d="M210-169c-67 3-38 105-44 169h-31v-121c0-29-5-50-35-48C34-165 62-65 56 0H25l-1-190h30c1 10-1 24 2 32 10-44 99-50 107 0 11-21 27-35 58-36 85-2 47 119 55 194h-31v-121c0-29-5-49-35-48"
         id="an" />
      <g
         id="d">
        <use
           transform="matrix(0.06172839506172839,0,0,0.06172839506172839,0,0)"
           xlink:href="#aj"
           id="use90" />
        <use
           transform="matrix(0.06172839506172839,0,0,0.06172839506172839,12.345679012345679,0)"
           xlink:href="#ak"
           id="use91" />
        <use
           transform="matrix(0.06172839506172839,0,0,0.06172839506172839,19.691358024691358,0)"
           xlink:href="#ad"
           id="use92" />
        <use
           transform="matrix(0.06172839506172839,0,0,0.06172839506172839,32.03703703703704,0)"
           xlink:href="#al"
           id="use93" />
        <use
           transform="matrix(0.06172839506172839,0,0,0.06172839506172839,44.382716049382715,0)"
           xlink:href="#am"
           id="use94" />
        <use
           transform="matrix(0.06172839506172839,0,0,0.06172839506172839,49.25925925925926,0)"
           xlink:href="#ai"
           id="use95" />
        <use
           transform="matrix(0.06172839506172839,0,0,0.06172839506172839,61.60493827160494,0)"
           xlink:href="#an"
           id="use96" />
      </g>
      <g
         id="e">
        <use
           transform="matrix(0.06172839506172839,0,0,0.06172839506172839,0,0)"
           xlink:href="#ad"
           id="use97" />
        <use
           transform="matrix(0.06172839506172839,0,0,0.06172839506172839,12.345679012345679,0)"
           xlink:href="#ak"
           id="use98" />
      </g>
      <path
         fill="#333"
         d="M145-31C134-9 116 4 85 4 32 4 16-35 15-94c0-59 17-99 70-100 32-1 48 14 60 33 0-11-1-24 2-32h30l-1 268h-32zM93-21c41 0 51-33 51-76s-8-73-50-73c-40 0-46 35-46 75s5 74 45 74"
         id="ao" />
      <path
         fill="#333"
         d="M135-143c-3-34-86-38-87 0 15 53 115 12 119 90S17 21 10-45l28-5c4 36 97 45 98 0-10-56-113-15-118-90-4-57 82-63 122-42 12 7 21 19 24 35"
         id="ap" />
      <path
         fill="#333"
         d="M59-47c-2 24 18 29 38 22v24C64 9 27 4 27-40v-127H5v-23h24l9-43h21v43h35v23H59v120"
         id="aq" />
      <path
         fill="#333"
         d="M24-231v-30h32v30H24zM24 0v-190h32V0H24"
         id="ar" />
      <path
         fill="#333"
         d="M117-194c89-4 53 116 60 194h-32v-121c0-31-8-49-39-48C34-167 62-67 57 0H25l-1-190h30c1 10-1 24 2 32 11-22 29-35 61-36"
         id="as" />
      <g
         id="f">
        <use
           transform="matrix(0.06172839506172839,0,0,0.06172839506172839,0,0)"
           xlink:href="#ao"
           id="use99" />
        <use
           transform="matrix(0.06172839506172839,0,0,0.06172839506172839,12.345679012345679,0)"
           xlink:href="#ae"
           id="use100" />
        <use
           transform="matrix(0.06172839506172839,0,0,0.06172839506172839,24.691358024691358,0)"
           xlink:href="#ai"
           id="use101" />
        <use
           transform="matrix(0.06172839506172839,0,0,0.06172839506172839,37.03703703703704,0)"
           xlink:href="#ap"
           id="use102" />
        <use
           transform="matrix(0.06172839506172839,0,0,0.06172839506172839,48.14814814814815,0)"
           xlink:href="#aq"
           id="use103" />
        <use
           transform="matrix(0.06172839506172839,0,0,0.06172839506172839,54.320987654320994,0)"
           xlink:href="#ar"
           id="use104" />
        <use
           transform="matrix(0.06172839506172839,0,0,0.06172839506172839,59.19753086419754,0)"
           xlink:href="#ad"
           id="use105" />
        <use
           transform="matrix(0.06172839506172839,0,0,0.06172839506172839,71.54320987654322,0)"
           xlink:href="#as"
           id="use106" />
      </g>
      <path
         fill="#333"
         d="M206 0h-36l-40-164L89 0H53L-1-190h32L70-26l43-164h34l41 164 42-164h31"
         id="at" />
      <g
         id="g">
        <use
           transform="matrix(0.06172839506172839,0,0,0.06172839506172839,0,0)"
           xlink:href="#at"
           id="use107" />
        <use
           transform="matrix(0.06172839506172839,0,0,0.06172839506172839,15.987654320987653,0)"
           xlink:href="#ar"
           id="use108" />
        <use
           transform="matrix(0.06172839506172839,0,0,0.06172839506172839,20.864197530864196,0)"
           xlink:href="#aq"
           id="use109" />
        <use
           transform="matrix(0.06172839506172839,0,0,0.06172839506172839,27.037037037037035,0)"
           xlink:href="#af"
           id="use110" />
      </g>
      <g
         id="h">
        <use
           transform="matrix(0.06172839506172839,0,0,0.06172839506172839,0,0)"
           xlink:href="#aq"
           id="use111" />
        <use
           transform="matrix(0.06172839506172839,0,0,0.06172839506172839,6.172839506172839,0)"
           xlink:href="#af"
           id="use112" />
        <use
           transform="matrix(0.06172839506172839,0,0,0.06172839506172839,18.51851851851852,0)"
           xlink:href="#ai"
           id="use113" />
      </g>
      <path
         fill="#333"
         d="M96-169c-40 0-48 33-48 73s9 75 48 75c24 0 41-14 43-38l32 2c-6 37-31 61-74 61-59 0-76-41-82-99-10-93 101-131 147-64 4 7 5 14 7 22l-32 3c-4-21-16-35-41-35"
         id="au" />
      <g
         id="i">
        <use
           transform="matrix(0.06172839506172839,0,0,0.06172839506172839,0,0)"
           xlink:href="#au"
           id="use114" />
        <use
           transform="matrix(0.06172839506172839,0,0,0.06172839506172839,11.11111111111111,0)"
           xlink:href="#am"
           id="use115" />
        <use
           transform="matrix(0.06172839506172839,0,0,0.06172839506172839,15.987654320987653,0)"
           xlink:href="#ae"
           id="use116" />
        <use
           transform="matrix(0.06172839506172839,0,0,0.06172839506172839,28.333333333333332,0)"
           xlink:href="#ap"
           id="use117" />
        <use
           transform="matrix(0.06172839506172839,0,0,0.06172839506172839,39.44444444444444,0)"
           xlink:href="#aq"
           id="use118" />
        <use
           transform="matrix(0.06172839506172839,0,0,0.06172839506172839,45.617283950617285,0)"
           xlink:href="#ai"
           id="use119" />
        <use
           transform="matrix(0.06172839506172839,0,0,0.06172839506172839,57.96296296296296,0)"
           xlink:href="#ak"
           id="use120" />
      </g>
      <path
         fill="#333"
         d="M127-220V0H93v-220H8v-28h204v28h-85"
         id="av" />
      <path
         fill="#333"
         d="M179-190L93 31C79 59 56 82 12 73V49c39 6 53-20 64-50L1-190h34L92-34l54-156h33"
         id="aw" />
      <g
         id="j">
        <use
           transform="matrix(0.06172839506172839,0,0,0.06172839506172839,0,0)"
           xlink:href="#av"
           id="use121" />
        <use
           transform="matrix(0.06172839506172839,0,0,0.06172839506172839,12.716049382716047,0)"
           xlink:href="#ak"
           id="use122" />
        <use
           transform="matrix(0.06172839506172839,0,0,0.06172839506172839,20.061728395061728,0)"
           xlink:href="#aw"
           id="use123" />
      </g>
      <g
         id="k">
        <use
           transform="matrix(0.06172839506172839,0,0,0.06172839506172839,0,0)"
           xlink:href="#aq"
           id="use124" />
        <use
           transform="matrix(0.06172839506172839,0,0,0.06172839506172839,6.172839506172839,0)"
           xlink:href="#ad"
           id="use125" />
      </g>
      <g
         id="l">
        <use
           transform="matrix(0.06172839506172839,0,0,0.06172839506172839,0,0)"
           xlink:href="#ap"
           id="use126" />
        <use
           transform="matrix(0.06172839506172839,0,0,0.06172839506172839,11.11111111111111,0)"
           xlink:href="#ai"
           id="use127" />
        <use
           transform="matrix(0.06172839506172839,0,0,0.06172839506172839,23.45679012345679,0)"
           xlink:href="#ag"
           id="use128" />
        <use
           transform="matrix(0.06172839506172839,0,0,0.06172839506172839,35.80246913580247,0)"
           xlink:href="#ak"
           id="use129" />
        <use
           transform="matrix(0.06172839506172839,0,0,0.06172839506172839,43.148148148148145,0)"
           xlink:href="#au"
           id="use130" />
        <use
           transform="matrix(0.06172839506172839,0,0,0.06172839506172839,54.25925925925925,0)"
           xlink:href="#af"
           id="use131" />
      </g>
      <path
         fill="#333"
         d="M143 4C61 4 22-44 18-125c-5-107 100-154 193-111 17 8 29 25 37 43l-32 9c-13-25-37-40-76-40-61 0-88 39-88 99 0 61 29 100 91 101 35 0 62-11 79-27v-45h-74v-28h105v86C228-13 192 4 143 4"
         id="ax" />
      <path
         fill="#333"
         d="M177-190C167-65 218 103 67 71c-23-6-38-20-44-43l32-5c15 47 100 32 89-28v-30C133-14 115 1 83 1 29 1 15-40 15-95c0-56 16-97 71-98 29-1 48 16 59 35 1-10 0-23 2-32h30zM94-22c36 0 50-32 50-73 0-42-14-75-50-75-39 0-46 34-46 75s6 73 46 73"
         id="ay" />
      <g
         id="m">
        <use
           transform="matrix(0.06172839506172839,0,0,0.06172839506172839,0,0)"
           xlink:href="#ax"
           id="use132" />
        <use
           transform="matrix(0.06172839506172839,0,0,0.06172839506172839,17.28395061728395,0)"
           xlink:href="#ad"
           id="use133" />
        <use
           transform="matrix(0.06172839506172839,0,0,0.06172839506172839,29.629629629629626,0)"
           xlink:href="#ad"
           id="use134" />
        <use
           transform="matrix(0.06172839506172839,0,0,0.06172839506172839,41.9753086419753,0)"
           xlink:href="#ay"
           id="use135" />
        <use
           transform="matrix(0.06172839506172839,0,0,0.06172839506172839,54.32098765432098,0)"
           xlink:href="#am"
           id="use136" />
        <use
           transform="matrix(0.06172839506172839,0,0,0.06172839506172839,59.197530864197525,0)"
           xlink:href="#ai"
           id="use137" />
      </g>
      <path
         fill="#333"
         d="M101-234c-31-9-42 10-38 44h38v23H63V0H32v-167H5v-23h27c-7-52 17-82 69-68v24"
         id="az" />
      <g
         id="n">
        <use
           transform="matrix(0.06172839506172839,0,0,0.06172839506172839,0,0)"
           xlink:href="#az"
           id="use138" />
        <use
           transform="matrix(0.06172839506172839,0,0,0.06172839506172839,6.172839506172839,0)"
           xlink:href="#ad"
           id="use139" />
        <use
           transform="matrix(0.06172839506172839,0,0,0.06172839506172839,18.51851851851852,0)"
           xlink:href="#ak"
           id="use140" />
      </g>
      <g
         id="o">
        <use
           transform="matrix(0.06172839506172839,0,0,0.06172839506172839,0,0)"
           xlink:href="#ap"
           id="use141" />
        <use
           transform="matrix(0.06172839506172839,0,0,0.06172839506172839,11.11111111111111,0)"
           xlink:href="#ad"
           id="use142" />
        <use
           transform="matrix(0.06172839506172839,0,0,0.06172839506172839,23.45679012345679,0)"
           xlink:href="#am"
           id="use143" />
        <use
           transform="matrix(0.06172839506172839,0,0,0.06172839506172839,28.333333333333336,0)"
           xlink:href="#ae"
           id="use144" />
        <use
           transform="matrix(0.06172839506172839,0,0,0.06172839506172839,40.67901234567901,0)"
           xlink:href="#aq"
           id="use145" />
        <use
           transform="matrix(0.06172839506172839,0,0,0.06172839506172839,46.851851851851855,0)"
           xlink:href="#ar"
           id="use146" />
        <use
           transform="matrix(0.06172839506172839,0,0,0.06172839506172839,51.7283950617284,0)"
           xlink:href="#ad"
           id="use147" />
        <use
           transform="matrix(0.06172839506172839,0,0,0.06172839506172839,64.07407407407408,0)"
           xlink:href="#as"
           id="use148" />
      </g>
      <g
         id="p">
        <use
           transform="matrix(0.06172839506172839,0,0,0.06172839506172839,0,0)"
           xlink:href="#av"
           id="use149" />
        <use
           transform="matrix(0.06172839506172839,0,0,0.06172839506172839,12.716049382716047,0)"
           xlink:href="#ak"
           id="use150" />
        <use
           transform="matrix(0.06172839506172839,0,0,0.06172839506172839,20.061728395061728,0)"
           xlink:href="#aw"
           id="use151" />
      </g>
      <g
         id="q">
        <use
           transform="matrix(0.06172839506172839,0,0,0.06172839506172839,0,0)"
           xlink:href="#aq"
           id="use152" />
        <use
           transform="matrix(0.06172839506172839,0,0,0.06172839506172839,6.172839506172839,0)"
           xlink:href="#ad"
           id="use153" />
      </g>
      <g
         id="r">
        <use
           transform="matrix(0.06172839506172839,0,0,0.06172839506172839,0,0)"
           xlink:href="#ap"
           id="use154" />
        <use
           transform="matrix(0.06172839506172839,0,0,0.06172839506172839,11.11111111111111,0)"
           xlink:href="#ad"
           id="use155" />
        <use
           transform="matrix(0.06172839506172839,0,0,0.06172839506172839,23.45679012345679,0)"
           xlink:href="#am"
           id="use156" />
        <use
           transform="matrix(0.06172839506172839,0,0,0.06172839506172839,28.333333333333336,0)"
           xlink:href="#ah"
           id="use157" />
        <use
           transform="matrix(0.06172839506172839,0,0,0.06172839506172839,39.44444444444444,0)"
           xlink:href="#ai"
           id="use158" />
      </g>
      <g
         id="s">
        <use
           transform="matrix(0.06172839506172839,0,0,0.06172839506172839,0,0)"
           xlink:href="#ar"
           id="use159" />
        <use
           transform="matrix(0.06172839506172839,0,0,0.06172839506172839,4.876543209876543,0)"
           xlink:href="#aq"
           id="use160" />
      </g>
      <g
         id="t">
        <use
           transform="matrix(0.06172839506172839,0,0,0.06172839506172839,0,0)"
           xlink:href="#at"
           id="use161" />
        <use
           transform="matrix(0.06172839506172839,0,0,0.06172839506172839,15.987654320987653,0)"
           xlink:href="#ar"
           id="use162" />
        <use
           transform="matrix(0.06172839506172839,0,0,0.06172839506172839,20.864197530864196,0)"
           xlink:href="#aq"
           id="use163" />
        <use
           transform="matrix(0.06172839506172839,0,0,0.06172839506172839,27.037037037037035,0)"
           xlink:href="#af"
           id="use164" />
      </g>
      <g
         id="u">
        <use
           transform="matrix(0.06172839506172839,0,0,0.06172839506172839,0,0)"
           xlink:href="#aq"
           id="use165" />
        <use
           transform="matrix(0.06172839506172839,0,0,0.06172839506172839,6.172839506172839,0)"
           xlink:href="#af"
           id="use166" />
        <use
           transform="matrix(0.06172839506172839,0,0,0.06172839506172839,18.51851851851852,0)"
           xlink:href="#ai"
           id="use167" />
      </g>
      <g
         id="v">
        <use
           transform="matrix(0.06172839506172839,0,0,0.06172839506172839,0,0)"
           xlink:href="#an"
           id="use168" />
        <use
           transform="matrix(0.06172839506172839,0,0,0.06172839506172839,18.456790123456788,0)"
           xlink:href="#ag"
           id="use169" />
        <use
           transform="matrix(0.06172839506172839,0,0,0.06172839506172839,30.80246913580247,0)"
           xlink:href="#as"
           id="use170" />
        <use
           transform="matrix(0.06172839506172839,0,0,0.06172839506172839,43.148148148148145,0)"
           xlink:href="#ae"
           id="use171" />
        <use
           transform="matrix(0.06172839506172839,0,0,0.06172839506172839,55.49382716049382,0)"
           xlink:href="#ag"
           id="use172" />
        <use
           transform="matrix(0.06172839506172839,0,0,0.06172839506172839,67.8395061728395,0)"
           xlink:href="#am"
           id="use173" />
      </g>
      <g
         id="w">
        <use
           transform="matrix(0.06172839506172839,0,0,0.06172839506172839,0,0)"
           xlink:href="#ag"
           id="use174" />
        <use
           transform="matrix(0.06172839506172839,0,0,0.06172839506172839,12.345679012345679,0)"
           xlink:href="#aq"
           id="use175" />
      </g>
      <path
         fill="#333"
         d="M85-194c31 0 48 13 60 33l-1-100h32l1 261h-30c-2-10 0-23-3-31C134-8 116 4 85 4 32 4 16-35 15-94c0-66 23-100 70-100zm9 24c-40 0-46 34-46 75 0 40 6 74 45 74 42 0 51-32 51-76 0-42-9-74-50-73"
         id="aA" />
      <path
         fill="#333"
         d="M33 0v-38h34V0H33"
         id="aB" />
      <g
         id="x">
        <use
           transform="matrix(0.06172839506172839,0,0,0.06172839506172839,0,0)"
           xlink:href="#aA"
           id="use176" />
        <use
           transform="matrix(0.06172839506172839,0,0,0.06172839506172839,12.345679012345679,0)"
           xlink:href="#ad"
           id="use177" />
        <use
           transform="matrix(0.06172839506172839,0,0,0.06172839506172839,24.691358024691358,0)"
           xlink:href="#au"
           id="use178" />
        <use
           transform="matrix(0.06172839506172839,0,0,0.06172839506172839,35.80246913580247,0)"
           xlink:href="#ap"
           id="use179" />
        <use
           transform="matrix(0.06172839506172839,0,0,0.06172839506172839,46.91358024691358,0)"
           xlink:href="#aB"
           id="use180" />
        <use
           transform="matrix(0.06172839506172839,0,0,0.06172839506172839,53.086419753086425,0)"
           xlink:href="#af"
           id="use181" />
        <use
           transform="matrix(0.06172839506172839,0,0,0.06172839506172839,65.4320987654321,0)"
           xlink:href="#aj"
           id="use182" />
        <use
           transform="matrix(0.06172839506172839,0,0,0.06172839506172839,77.77777777777779,0)"
           xlink:href="#au"
           id="use183" />
        <use
           transform="matrix(0.06172839506172839,0,0,0.06172839506172839,88.8888888888889,0)"
           xlink:href="#aB"
           id="use184" />
        <use
           transform="matrix(0.06172839506172839,0,0,0.06172839506172839,95.06172839506173,0)"
           xlink:href="#al"
           id="use185" />
        <use
           transform="matrix(0.06172839506172839,0,0,0.06172839506172839,107.40740740740742,0)"
           xlink:href="#ar"
           id="use186" />
        <use
           transform="matrix(0.06172839506172839,0,0,0.06172839506172839,112.28395061728396,0)"
           xlink:href="#af"
           id="use187" />
        <use
           transform="matrix(0.06172839506172839,0,0,0.06172839506172839,124.62962962962965,0)"
           xlink:href="#ai"
           id="use188" />
        <use
           transform="matrix(0.06172839506172839,0,0,0.06172839506172839,136.97530864197532,0)"
           xlink:href="#ag"
           id="use189" />
        <use
           transform="matrix(0.06172839506172839,0,0,0.06172839506172839,149.320987654321,0)"
           xlink:href="#am"
           id="use190" />
        <use
           transform="matrix(0.06172839506172839,0,0,0.06172839506172839,154.19753086419752,0)"
           xlink:href="#aq"
           id="use191" />
        <use
           transform="matrix(0.06172839506172839,0,0,0.06172839506172839,160.37037037037035,0)"
           xlink:href="#af"
           id="use192" />
        <use
           transform="matrix(0.06172839506172839,0,0,0.06172839506172839,172.71604938271602,0)"
           xlink:href="#aB"
           id="use193" />
        <use
           transform="matrix(0.06172839506172839,0,0,0.06172839506172839,178.88888888888886,0)"
           xlink:href="#ad"
           id="use194" />
        <use
           transform="matrix(0.06172839506172839,0,0,0.06172839506172839,191.23456790123453,0)"
           xlink:href="#ak"
           id="use195" />
        <use
           transform="matrix(0.06172839506172839,0,0,0.06172839506172839,198.5802469135802,0)"
           xlink:href="#ay"
           id="use196" />
      </g>
      <path
         fill="#333"
         d="M103-251c84 0 111 97 45 133-19 10-37 24-39 52H78c0-63 77-55 77-114 0-30-21-42-52-43-32 0-53 17-56 46l-32-2c7-45 34-72 88-72zM77 0v-35h34V0H77"
         id="aC" />
      <g
         id="y">
        <use
           transform="matrix(0.06172839506172839,0,0,0.06172839506172839,0,0)"
           xlink:href="#ap"
           id="use197" />
        <use
           transform="matrix(0.06172839506172839,0,0,0.06172839506172839,11.11111111111111,0)"
           xlink:href="#ad"
           id="use198" />
        <use
           transform="matrix(0.06172839506172839,0,0,0.06172839506172839,23.45679012345679,0)"
           xlink:href="#am"
           id="use199" />
        <use
           transform="matrix(0.06172839506172839,0,0,0.06172839506172839,28.333333333333336,0)"
           xlink:href="#ah"
           id="use200" />
        <use
           transform="matrix(0.06172839506172839,0,0,0.06172839506172839,39.44444444444444,0)"
           xlink:href="#ai"
           id="use201" />
        <use
           transform="matrix(0.06172839506172839,0,0,0.06172839506172839,51.79012345679012,0)"
           xlink:href="#aA"
           id="use202" />
        <use
           transform="matrix(0.06172839506172839,0,0,0.06172839506172839,64.1358024691358,0)"
           xlink:href="#aC"
           id="use203" />
      </g>
      <path
         fill="#333"
         d="M146-102V0H94v-102L6-248h54l60 105 60-105h54"
         id="aD" />
      <path
         fill="#333"
         d="M185-48c-13 30-37 53-82 52C43 2 14-33 14-96s30-98 90-98c62 0 83 45 84 108H66c0 31 8 55 39 56 18 0 30-7 34-22zm-45-69c5-46-57-63-70-21-2 6-4 13-4 21h74"
         id="aE" />
      <path
         fill="#333"
         d="M137-138c1-29-70-34-71-4 15 46 118 7 119 86 1 83-164 76-172 9l43-7c4 19 20 25 44 25 33 8 57-30 24-41C81-84 22-81 20-136c-2-80 154-74 161-7"
         id="aF" />
      <g
         id="z">
        <use
           transform="matrix(0.04938271604938272,0,0,0.04938271604938272,0,0)"
           xlink:href="#aD"
           id="use204" />
        <use
           transform="matrix(0.04938271604938272,0,0,0.04938271604938272,10.864197530864198,0)"
           xlink:href="#aE"
           id="use205" />
        <use
           transform="matrix(0.04938271604938272,0,0,0.04938271604938272,20.74074074074074,0)"
           xlink:href="#aF"
           id="use206" />
      </g>
      <path
         fill="#333"
         d="M175 0L67-191c6 58 2 128 3 191H24v-248h59L193-55c-6-58-2-129-3-193h46V0h-61"
         id="aG" />
      <path
         fill="#333"
         d="M110-194c64 0 96 36 96 99 0 64-35 99-97 99-61 0-95-36-95-99 0-62 34-99 96-99zm-1 164c35 0 45-28 45-65 0-40-10-65-43-65-34 0-45 26-45 65 0 36 10 65 43 65"
         id="aH" />
      <g
         id="A">
        <use
           transform="matrix(0.04938271604938272,0,0,0.04938271604938272,0,0)"
           xlink:href="#aG"
           id="use207" />
        <use
           transform="matrix(0.04938271604938272,0,0,0.04938271604938272,12.790123456790125,0)"
           xlink:href="#aH"
           id="use208" />
      </g>
      <path
         fill="#333"
         d="M67-158c22-48 132-52 116 29L158 0h-32l25-140c3-38-53-32-70-12C52-117 51-52 38 0H6l36-190h30"
         id="aI" />
      <path
         fill="#333"
         d="M30-147c31-64 166-65 159 27C183-49 158 1 86 4 9 8 1-88 30-147zM88-20c53 0 68-48 68-100 0-31-11-51-44-50-52 1-68 46-68 97 0 32 13 53 44 53"
         id="aJ" />
      <path
         fill="#333"
         d="M51-54c-9 22 5 41 31 30L79-1C43 14 10-4 19-52l22-115H19l5-23h22l19-43h21l-9 43h35l-4 23H73"
         id="aK" />
      <path
         fill="#333"
         d="M111-194c62-3 86 47 72 106H45c-7 38 6 69 45 68 27-1 43-14 53-32l24 11C152-15 129 4 87 4 38 3 12-23 12-71c0-70 32-119 99-123zm44 81c14-66-71-72-95-28-4 8-8 17-11 28h106"
         id="aL" />
      <g
         id="B">
        <use
           transform="matrix(0.049382716049382706,0,0,0.049382716049382706,0,0)"
           xlink:href="#aI"
           id="use209" />
        <use
           transform="matrix(0.049382716049382706,0,0,0.049382716049382706,9.87654320987654,0)"
           xlink:href="#aJ"
           id="use210" />
        <use
           transform="matrix(0.049382716049382706,0,0,0.049382716049382706,19.75308641975308,0)"
           xlink:href="#aK"
           id="use211" />
        <use
           transform="matrix(0.049382716049382706,0,0,0.049382716049382706,24.691358024691354,0)"
           xlink:href="#aL"
           id="use212" />
      </g>
      <path
         fill="#333"
         d="M67-158c15-20 31-36 64-36 94 0 33 127 27 194h-32l25-140c3-38-53-32-70-12C52-117 51-51 37 0H6l51-261h31"
         id="aM" />
      <g
         id="C">
        <use
           transform="matrix(0.049382716049382706,0,0,0.049382716049382706,0,0)"
           xlink:href="#aK"
           id="use213" />
        <use
           transform="matrix(0.049382716049382706,0,0,0.049382716049382706,4.93827160493827,0)"
           xlink:href="#aM"
           id="use214" />
        <use
           transform="matrix(0.049382716049382706,0,0,0.049382716049382706,14.814814814814811,0)"
           xlink:href="#aL"
           id="use215" />
      </g>
      <path
         fill="#333"
         d="M55-144c13 50 104 24 104 88C159 21 15 23 1-39l26-10c6 40 102 42 102-4-13-50-104-23-104-87 0-71 143-71 148-8l-29 4c-5-35-85-37-89 0"
         id="aN" />
      <path
         fill="#333"
         d="M165-48c-4 18 1 34 23 27l-3 20c-29 8-62 0-52-35h-2C116-14 99 4 63 4 30 4 8-16 8-49c0-68 71-67 138-67 10-26 0-56-31-54-26 1-42 9-47 31l-32-5c8-67 160-71 144 15-5 28-9 54-15 81zM42-50c3 52 80 24 89-6 7-12 7-24 11-38-47 1-103-4-100 44"
         id="aO" />
      <path
         fill="#333"
         d="M66-151c12-25 30-51 66-40l-6 26C45-176 58-65 38 0H6l36-190h30"
         id="aP" />
      <path
         fill="#333"
         d="M44-68c0 29 11 47 38 47 30 0 42-19 51-41l28 9C148-21 126 4 82 4 31 4 10-29 12-85c3-77 74-140 146-93 12 8 15 23 18 40l-31 5c-1-22-13-36-36-36-52 0-65 49-65 101"
         id="aQ" />
      <g
         id="D">
        <use
           transform="matrix(0.049382716049382706,0,0,0.049382716049382706,0,0)"
           xlink:href="#aN"
           id="use216" />
        <use
           transform="matrix(0.049382716049382706,0,0,0.049382716049382706,8.888888888888888,0)"
           xlink:href="#aL"
           id="use217" />
        <use
           transform="matrix(0.049382716049382706,0,0,0.049382716049382706,18.76543209876543,0)"
           xlink:href="#aO"
           id="use218" />
        <use
           transform="matrix(0.049382716049382706,0,0,0.049382716049382706,28.64197530864197,0)"
           xlink:href="#aP"
           id="use219" />
        <use
           transform="matrix(0.049382716049382706,0,0,0.049382716049382706,34.51851851851851,0)"
           xlink:href="#aQ"
           id="use220" />
        <use
           transform="matrix(0.049382716049382706,0,0,0.049382716049382706,43.4074074074074,0)"
           xlink:href="#aM"
           id="use221" />
      </g>
      <path
         fill="#333"
         d="M68-162c25-46 127-43 121 31C183-60 169 1 98 4 69 5 53-11 43-31L36 0H5l52-261h31zm88 36c2-27-9-43-34-43-55 0-70 51-70 103 0 29 15 45 43 46 52 0 58-58 61-106"
         id="aR" />
      <g
         id="E">
        <use
           transform="matrix(0.049382716049382706,0,0,0.049382716049382706,0,0)"
           xlink:href="#aR"
           id="use222" />
        <use
           transform="matrix(0.049382716049382706,0,0,0.049382716049382706,9.87654320987654,0)"
           xlink:href="#aO"
           id="use223" />
        <use
           transform="matrix(0.049382716049382706,0,0,0.049382716049382706,19.75308641975308,0)"
           xlink:href="#aP"
           id="use224" />
      </g>
      <g
         id="F">
        <use
           transform="matrix(0.049382716049382706,0,0,0.049382716049382706,0,0)"
           xlink:href="#aJ"
           id="use225" />
        <use
           transform="matrix(0.049382716049382706,0,0,0.049382716049382706,9.87654320987654,0)"
           xlink:href="#aI"
           id="use226" />
      </g>
      <path
         fill="#333"
         d="M67-162c32-53 139-36 121 50C175-51 163 2 97 4 68 4 52-11 42-31 38 6 28 39 22 75H-9l50-265h29c-1 10 0 20-3 28zm89 36c0-26-10-43-35-43-54 0-67 50-69 103-1 29 14 45 42 46 53 0 62-58 62-106"
         id="aS" />
      <g
         id="G">
        <use
           transform="matrix(0.049382716049382706,0,0,0.049382716049382706,0,0)"
           xlink:href="#aK"
           id="use227" />
        <use
           transform="matrix(0.049382716049382706,0,0,0.049382716049382706,4.93827160493827,0)"
           xlink:href="#aJ"
           id="use228" />
        <use
           transform="matrix(0.049382716049382706,0,0,0.049382716049382706,14.814814814814811,0)"
           xlink:href="#aS"
           id="use229" />
      </g>
      <path
         fill="#333"
         d="M76-167L44 0H12l33-167H18l4-23h27c3-47 25-81 82-69l-4 24c-35-8-44 15-46 45h37l-5 23H76"
         id="aT" />
      <g
         id="H">
        <use
           transform="matrix(0.049382716049382706,0,0,0.049382716049382706,0,0)"
           xlink:href="#aJ"
           id="use230" />
        <use
           transform="matrix(0.049382716049382706,0,0,0.049382716049382706,9.87654320987654,0)"
           xlink:href="#aT"
           id="use231" />
      </g>
      <g
         id="I">
        <use
           transform="matrix(0.049382716049382706,0,0,0.049382716049382706,0,0)"
           xlink:href="#aK"
           id="use232" />
        <use
           transform="matrix(0.049382716049382706,0,0,0.049382716049382706,4.93827160493827,0)"
           xlink:href="#aM"
           id="use233" />
        <use
           transform="matrix(0.049382716049382706,0,0,0.049382716049382706,14.814814814814811,0)"
           xlink:href="#aL"
           id="use234" />
      </g>
      <path
         fill="#333"
         d="M248-111c6-24 9-61-24-58-72 9-57 108-77 169h-31l26-142c3-37-50-30-64-10C52-115 50-51 37 0H6l36-190h30c-1 10-6 24-4 32 13-43 101-52 105 5 13-22 29-41 61-41 90 0 28 129 23 194h-31"
         id="aU" />
      <path
         fill="#333"
         d="M67 3c-93-2-31-127-26-193h32L48-50c-3 39 53 32 70 12 30-34 30-101 43-152h32L157 0h-30c1-10 6-24 4-33-14 20-29 37-64 36"
         id="aV" />
      <path
         fill="#333"
         d="M6 0l50-261h32L37 0H6"
         id="aW" />
      <g
         id="J">
        <use
           transform="matrix(0.049382716049382706,0,0,0.049382716049382706,0,0)"
           xlink:href="#aU"
           id="use235" />
        <use
           transform="matrix(0.049382716049382706,0,0,0.049382716049382706,14.765432098765428,0)"
           xlink:href="#aO"
           id="use236" />
        <use
           transform="matrix(0.049382716049382706,0,0,0.049382716049382706,24.641975308641968,0)"
           xlink:href="#aI"
           id="use237" />
        <use
           transform="matrix(0.049382716049382706,0,0,0.049382716049382706,34.518518518518505,0)"
           xlink:href="#aV"
           id="use238" />
        <use
           transform="matrix(0.049382716049382706,0,0,0.049382716049382706,44.39506172839505,0)"
           xlink:href="#aO"
           id="use239" />
        <use
           transform="matrix(0.049382716049382706,0,0,0.049382716049382706,54.271604938271594,0)"
           xlink:href="#aW"
           id="use240" />
      </g>
      <path
         fill="#333"
         d="M103-194c29 0 47 14 56 36 2-11 5-23 8-32h30L160-5C157 61 82 97 21 62 9 55 4 45 1 30l28-7c7 42 83 31 92-3 4-16 9-38 13-55-13 20-29 36-62 36-40 0-60-25-60-64 0-71 23-131 91-131zm4 24c-53 0-58 54-61 104-2 27 10 44 36 44 49 0 65-50 67-102 1-29-15-46-42-46"
         id="aX" />
      <g
         id="K">
        <use
           transform="matrix(0.049382716049382706,0,0,0.049382716049382706,0,0)"
           xlink:href="#aS"
           id="use241" />
        <use
           transform="matrix(0.049382716049382706,0,0,0.049382716049382706,9.87654320987654,0)"
           xlink:href="#aO"
           id="use242" />
        <use
           transform="matrix(0.049382716049382706,0,0,0.049382716049382706,19.75308641975308,0)"
           xlink:href="#aX"
           id="use243" />
        <use
           transform="matrix(0.049382716049382706,0,0,0.049382716049382706,29.629629629629623,0)"
           xlink:href="#aL"
           id="use244" />
      </g>
      <path
         fill="#333"
         d="M63-70H37l-4-178h34zM33 0v-35h34V0H33"
         id="aY" />
      <g
         id="L">
        <use
           transform="matrix(0.06172839506172839,0,0,0.06172839506172839,0,0)"
           xlink:href="#ax"
           id="use245" />
        <use
           transform="matrix(0.06172839506172839,0,0,0.06172839506172839,17.28395061728395,0)"
           xlink:href="#ak"
           id="use246" />
        <use
           transform="matrix(0.06172839506172839,0,0,0.06172839506172839,24.629629629629626,0)"
           xlink:href="#ai"
           id="use247" />
        <use
           transform="matrix(0.06172839506172839,0,0,0.06172839506172839,36.9753086419753,0)"
           xlink:href="#ag"
           id="use248" />
        <use
           transform="matrix(0.06172839506172839,0,0,0.06172839506172839,49.32098765432098,0)"
           xlink:href="#aq"
           id="use249" />
        <use
           transform="matrix(0.06172839506172839,0,0,0.06172839506172839,55.49382716049382,0)"
           xlink:href="#aY"
           id="use250" />
      </g>
      <path
         fill="#333"
         d="M30-248c87 1 191-15 191 75 0 78-77 80-158 76V0H30v-248zm33 125c57 0 124 11 124-50 0-59-68-47-124-48v98"
         id="aZ" />
      <g
         id="M">
        <use
           transform="matrix(0.06172839506172839,0,0,0.06172839506172839,0,0)"
           xlink:href="#aZ"
           id="use251" />
        <use
           transform="matrix(0.06172839506172839,0,0,0.06172839506172839,14.814814814814813,0)"
           xlink:href="#am"
           id="use252" />
        <use
           transform="matrix(0.06172839506172839,0,0,0.06172839506172839,19.691358024691354,0)"
           xlink:href="#ai"
           id="use253" />
        <use
           transform="matrix(0.06172839506172839,0,0,0.06172839506172839,32.03703703703703,0)"
           xlink:href="#ag"
           id="use254" />
        <use
           transform="matrix(0.06172839506172839,0,0,0.06172839506172839,44.38271604938271,0)"
           xlink:href="#ap"
           id="use255" />
        <use
           transform="matrix(0.06172839506172839,0,0,0.06172839506172839,55.49382716049382,0)"
           xlink:href="#ai"
           id="use256" />
      </g>
      <g
         id="N">
        <use
           transform="matrix(0.06172839506172839,0,0,0.06172839506172839,0,0)"
           xlink:href="#au"
           id="use257" />
        <use
           transform="matrix(0.06172839506172839,0,0,0.06172839506172839,11.11111111111111,0)"
           xlink:href="#ad"
           id="use258" />
        <use
           transform="matrix(0.06172839506172839,0,0,0.06172839506172839,23.45679012345679,0)"
           xlink:href="#as"
           id="use259" />
        <use
           transform="matrix(0.06172839506172839,0,0,0.06172839506172839,35.80246913580247,0)"
           xlink:href="#ap"
           id="use260" />
        <use
           transform="matrix(0.06172839506172839,0,0,0.06172839506172839,46.91358024691358,0)"
           xlink:href="#ar"
           id="use261" />
        <use
           transform="matrix(0.06172839506172839,0,0,0.06172839506172839,51.79012345679013,0)"
           xlink:href="#aA"
           id="use262" />
        <use
           transform="matrix(0.06172839506172839,0,0,0.06172839506172839,64.13580246913581,0)"
           xlink:href="#ai"
           id="use263" />
        <use
           transform="matrix(0.06172839506172839,0,0,0.06172839506172839,76.4814814814815,0)"
           xlink:href="#ak"
           id="use264" />
      </g>
      <g
         id="O">
        <use
           transform="matrix(0.06172839506172839,0,0,0.06172839506172839,0,0)"
           xlink:href="#ae"
           id="use265" />
        <use
           transform="matrix(0.06172839506172839,0,0,0.06172839506172839,12.345679012345679,0)"
           xlink:href="#aj"
           id="use266" />
        <use
           transform="matrix(0.06172839506172839,0,0,0.06172839506172839,24.691358024691358,0)"
           xlink:href="#aA"
           id="use267" />
        <use
           transform="matrix(0.06172839506172839,0,0,0.06172839506172839,37.03703703703704,0)"
           xlink:href="#ag"
           id="use268" />
        <use
           transform="matrix(0.06172839506172839,0,0,0.06172839506172839,49.382716049382715,0)"
           xlink:href="#aq"
           id="use269" />
        <use
           transform="matrix(0.06172839506172839,0,0,0.06172839506172839,55.55555555555556,0)"
           xlink:href="#ar"
           id="use270" />
        <use
           transform="matrix(0.06172839506172839,0,0,0.06172839506172839,60.4320987654321,0)"
           xlink:href="#as"
           id="use271" />
        <use
           transform="matrix(0.06172839506172839,0,0,0.06172839506172839,72.77777777777779,0)"
           xlink:href="#ay"
           id="use272" />
      </g>
      <g
         id="P">
        <use
           transform="matrix(0.06172839506172839,0,0,0.06172839506172839,0,0)"
           xlink:href="#aq"
           id="use273" />
        <use
           transform="matrix(0.06172839506172839,0,0,0.06172839506172839,6.172839506172839,0)"
           xlink:href="#af"
           id="use274" />
        <use
           transform="matrix(0.06172839506172839,0,0,0.06172839506172839,18.51851851851852,0)"
           xlink:href="#ai"
           id="use275" />
      </g>
      <g
         id="Q">
        <use
           transform="matrix(0.06172839506172839,0,0,0.06172839506172839,0,0)"
           xlink:href="#ad"
           id="use276" />
        <use
           transform="matrix(0.06172839506172839,0,0,0.06172839506172839,12.345679012345679,0)"
           xlink:href="#ak"
           id="use277" />
      </g>
      <g
         id="R">
        <use
           transform="matrix(0.06172839506172839,0,0,0.06172839506172839,0,0)"
           xlink:href="#aq"
           id="use278" />
        <use
           transform="matrix(0.06172839506172839,0,0,0.06172839506172839,6.172839506172839,0)"
           xlink:href="#ai"
           id="use279" />
        <use
           transform="matrix(0.06172839506172839,0,0,0.06172839506172839,18.51851851851852,0)"
           xlink:href="#am"
           id="use280" />
        <use
           transform="matrix(0.06172839506172839,0,0,0.06172839506172839,23.395061728395063,0)"
           xlink:href="#am"
           id="use281" />
      </g>
      <path
         fill="#333"
         d="M16-82v-28h88v28H16"
         id="ba" />
      <path
         fill="#333"
         d="M143 0L79-87 56-68V0H24v-261h32v163l83-92h37l-77 82L181 0h-38"
         id="bb" />
      <g
         id="S">
        <use
           transform="matrix(0.06172839506172839,0,0,0.06172839506172839,0,0)"
           xlink:href="#af"
           id="use282" />
        <use
           transform="matrix(0.06172839506172839,0,0,0.06172839506172839,12.345679012345679,0)"
           xlink:href="#aj"
           id="use283" />
        <use
           transform="matrix(0.06172839506172839,0,0,0.06172839506172839,24.691358024691358,0)"
           xlink:href="#au"
           id="use284" />
        <use
           transform="matrix(0.06172839506172839,0,0,0.06172839506172839,35.80246913580247,0)"
           xlink:href="#ba"
           id="use285" />
        <use
           transform="matrix(0.06172839506172839,0,0,0.06172839506172839,43.148148148148145,0)"
           xlink:href="#af"
           id="use286" />
        <use
           transform="matrix(0.06172839506172839,0,0,0.06172839506172839,55.49382716049382,0)"
           xlink:href="#ai"
           id="use287" />
        <use
           transform="matrix(0.06172839506172839,0,0,0.06172839506172839,67.8395061728395,0)"
           xlink:href="#am"
           id="use288" />
        <use
           transform="matrix(0.06172839506172839,0,0,0.06172839506172839,72.71604938271605,0)"
           xlink:href="#aj"
           id="use289" />
        <use
           transform="matrix(0.06172839506172839,0,0,0.06172839506172839,85.06172839506173,0)"
           xlink:href="#aA"
           id="use290" />
        <use
           transform="matrix(0.06172839506172839,0,0,0.06172839506172839,97.40740740740742,0)"
           xlink:href="#ai"
           id="use291" />
        <use
           transform="matrix(0.06172839506172839,0,0,0.06172839506172839,109.7530864197531,0)"
           xlink:href="#ap"
           id="use292" />
        <use
           transform="matrix(0.06172839506172839,0,0,0.06172839506172839,120.86419753086422,0)"
           xlink:href="#bb"
           id="use293" />
      </g>
      <g
         id="T">
        <use
           transform="matrix(0.06172839506172839,0,0,0.06172839506172839,0,0)"
           xlink:href="#ag"
           id="use294" />
        <use
           transform="matrix(0.06172839506172839,0,0,0.06172839506172839,12.345679012345679,0)"
           xlink:href="#al"
           id="use295" />
        <use
           transform="matrix(0.06172839506172839,0,0,0.06172839506172839,24.691358024691358,0)"
           xlink:href="#ad"
           id="use296" />
        <use
           transform="matrix(0.06172839506172839,0,0,0.06172839506172839,37.03703703703704,0)"
           xlink:href="#ae"
           id="use297" />
        <use
           transform="matrix(0.06172839506172839,0,0,0.06172839506172839,49.382716049382715,0)"
           xlink:href="#aq"
           id="use298" />
      </g>
      <g
         id="U">
        <use
           transform="matrix(0.06172839506172839,0,0,0.06172839506172839,0,0)"
           xlink:href="#aw"
           id="use299" />
        <use
           transform="matrix(0.06172839506172839,0,0,0.06172839506172839,11.11111111111111,0)"
           xlink:href="#ad"
           id="use300" />
        <use
           transform="matrix(0.06172839506172839,0,0,0.06172839506172839,23.45679012345679,0)"
           xlink:href="#ae"
           id="use301" />
        <use
           transform="matrix(0.06172839506172839,0,0,0.06172839506172839,35.80246913580247,0)"
           xlink:href="#ak"
           id="use302" />
      </g>
      <g
         id="V">
        <use
           transform="matrix(0.06172839506172839,0,0,0.06172839506172839,0,0)"
           xlink:href="#ap"
           id="use303" />
        <use
           transform="matrix(0.06172839506172839,0,0,0.06172839506172839,11.11111111111111,0)"
           xlink:href="#ad"
           id="use304" />
        <use
           transform="matrix(0.06172839506172839,0,0,0.06172839506172839,23.45679012345679,0)"
           xlink:href="#am"
           id="use305" />
        <use
           transform="matrix(0.06172839506172839,0,0,0.06172839506172839,28.333333333333336,0)"
           xlink:href="#ae"
           id="use306" />
        <use
           transform="matrix(0.06172839506172839,0,0,0.06172839506172839,40.67901234567901,0)"
           xlink:href="#aq"
           id="use307" />
        <use
           transform="matrix(0.06172839506172839,0,0,0.06172839506172839,46.851851851851855,0)"
           xlink:href="#ar"
           id="use308" />
        <use
           transform="matrix(0.06172839506172839,0,0,0.06172839506172839,51.7283950617284,0)"
           xlink:href="#ad"
           id="use309" />
        <use
           transform="matrix(0.06172839506172839,0,0,0.06172839506172839,64.07407407407408,0)"
           xlink:href="#as"
           id="use310" />
        <use
           transform="matrix(0.06172839506172839,0,0,0.06172839506172839,76.41975308641976,0)"
           xlink:href="#aY"
           id="use311" />
      </g>
      <path
         fill="#333"
         d="M185-189c-5-48-123-54-124 2 14 75 158 14 163 119 3 78-121 87-175 55-17-10-28-26-33-46l33-7c5 56 141 63 141-1 0-78-155-14-162-118-5-82 145-84 179-34 5 7 8 16 11 25"
         id="bc" />
      <g
         id="W">
        <use
           transform="matrix(0.06172839506172839,0,0,0.06172839506172839,0,0)"
           xlink:href="#bc"
           id="use312" />
        <use
           transform="matrix(0.06172839506172839,0,0,0.06172839506172839,14.814814814814813,0)"
           xlink:href="#ad"
           id="use313" />
        <use
           transform="matrix(0.06172839506172839,0,0,0.06172839506172839,27.160493827160494,0)"
           xlink:href="#ae"
           id="use314" />
        <use
           transform="matrix(0.06172839506172839,0,0,0.06172839506172839,39.50617283950617,0)"
           xlink:href="#as"
           id="use315" />
        <use
           transform="matrix(0.06172839506172839,0,0,0.06172839506172839,51.85185185185185,0)"
           xlink:href="#aA"
           id="use316" />
        <use
           transform="matrix(0.06172839506172839,0,0,0.06172839506172839,64.19753086419753,0)"
           xlink:href="#ap"
           id="use317" />
      </g>
      <g
         id="X">
        <use
           transform="matrix(0.06172839506172839,0,0,0.06172839506172839,0,0)"
           xlink:href="#aq"
           id="use318" />
        <use
           transform="matrix(0.06172839506172839,0,0,0.06172839506172839,6.172839506172839,0)"
           xlink:href="#ad"
           id="use319" />
        <use
           transform="matrix(0.06172839506172839,0,0,0.06172839506172839,18.51851851851852,0)"
           xlink:href="#ae"
           id="use320" />
        <use
           transform="matrix(0.06172839506172839,0,0,0.06172839506172839,30.864197530864196,0)"
           xlink:href="#ay"
           id="use321" />
        <use
           transform="matrix(0.06172839506172839,0,0,0.06172839506172839,43.20987654320987,0)"
           xlink:href="#af"
           id="use322" />
        <use
           transform="matrix(0.06172839506172839,0,0,0.06172839506172839,55.55555555555555,0)"
           xlink:href="#aB"
           id="use323" />
      </g>
      <g
         id="Y">
        <use
           transform="matrix(0.06172839506172839,0,0,0.06172839506172839,0,0)"
           xlink:href="#af"
           id="use324" />
        <use
           transform="matrix(0.06172839506172839,0,0,0.06172839506172839,12.345679012345679,0)"
           xlink:href="#aj"
           id="use325" />
        <use
           transform="matrix(0.06172839506172839,0,0,0.06172839506172839,24.691358024691358,0)"
           xlink:href="#au"
           id="use326" />
        <use
           transform="matrix(0.06172839506172839,0,0,0.06172839506172839,35.80246913580247,0)"
           xlink:href="#ba"
           id="use327" />
        <use
           transform="matrix(0.06172839506172839,0,0,0.06172839506172839,43.148148148148145,0)"
           xlink:href="#af"
           id="use328" />
        <use
           transform="matrix(0.06172839506172839,0,0,0.06172839506172839,55.49382716049382,0)"
           xlink:href="#ai"
           id="use329" />
        <use
           transform="matrix(0.06172839506172839,0,0,0.06172839506172839,67.8395061728395,0)"
           xlink:href="#am"
           id="use330" />
        <use
           transform="matrix(0.06172839506172839,0,0,0.06172839506172839,72.71604938271605,0)"
           xlink:href="#aj"
           id="use331" />
        <use
           transform="matrix(0.06172839506172839,0,0,0.06172839506172839,85.06172839506173,0)"
           xlink:href="#aA"
           id="use332" />
        <use
           transform="matrix(0.06172839506172839,0,0,0.06172839506172839,97.40740740740742,0)"
           xlink:href="#ai"
           id="use333" />
        <use
           transform="matrix(0.06172839506172839,0,0,0.06172839506172839,109.7530864197531,0)"
           xlink:href="#ap"
           id="use334" />
        <use
           transform="matrix(0.06172839506172839,0,0,0.06172839506172839,120.86419753086422,0)"
           xlink:href="#bb"
           id="use335" />
      </g>
      <g
         id="Z">
        <use
           transform="matrix(0.06172839506172839,0,0,0.06172839506172839,0,0)"
           xlink:href="#ar"
           id="use336" />
        <use
           transform="matrix(0.06172839506172839,0,0,0.06172839506172839,4.876543209876543,0)"
           xlink:href="#ap"
           id="use337" />
      </g>
      <g
         id="aa">
        <use
           transform="matrix(0.06172839506172839,0,0,0.06172839506172839,0,0)"
           xlink:href="#af"
           id="use338" />
        <use
           transform="matrix(0.06172839506172839,0,0,0.06172839506172839,12.345679012345679,0)"
           xlink:href="#ag"
           id="use339" />
        <use
           transform="matrix(0.06172839506172839,0,0,0.06172839506172839,24.691358024691358,0)"
           xlink:href="#aj"
           id="use340" />
        <use
           transform="matrix(0.06172839506172839,0,0,0.06172839506172839,37.03703703703704,0)"
           xlink:href="#aj"
           id="use341" />
        <use
           transform="matrix(0.06172839506172839,0,0,0.06172839506172839,49.382716049382715,0)"
           xlink:href="#aw"
           id="use342" />
      </g>
      <g
         id="ab">
        <use
           transform="matrix(0.06172839506172839,0,0,0.06172839506172839,0,0)"
           xlink:href="#af"
           id="use343" />
        <use
           transform="matrix(0.06172839506172839,0,0,0.06172839506172839,12.345679012345679,0)"
           xlink:href="#ai"
           id="use344" />
        <use
           transform="matrix(0.06172839506172839,0,0,0.06172839506172839,24.691358024691358,0)"
           xlink:href="#am"
           id="use345" />
        <use
           transform="matrix(0.06172839506172839,0,0,0.06172839506172839,29.5679012345679,0)"
           xlink:href="#aj"
           id="use346" />
        <use
           transform="matrix(0.06172839506172839,0,0,0.06172839506172839,41.913580246913575,0)"
           xlink:href="#aY"
           id="use347" />
      </g>
    </defs>
  </g>
</svg>
